# xmcd
#
# Track frame offsets: 
#        150
#        13131
#        29782
#        42919
#        57431
#        71935
#        88888
#        102088
#        119124
#        134917
#        153947
#
# Disc length: 2287 seconds
#
# Revision: 0
# Processed by: cddbd v1.4PL0 Copyright (c) Steve Scherf et al.
# Submitted via: ExactAudioCopy v0.90b4
#
DISCID=ab08ed0b
DTITLE=Luca Olivieri - Country Boy
DYEAR=2001
DGENRE=Country
TTITLE0=Liza Jane
TTITLE1=Just Because
TTITLE2=Too Much Monkey Business
TTITLE3=That's How I Got To Memphis
TTITLE4=I Don't Like Snakes (Duet with Bobby Solo)
TTITLE5=Restless
TTITLE6=Guitars, Cadillacs
TTITLE7=If Tomorrow Never Comes
TTITLE8=Blue Moon On Kentucky
TTITLE9=Country Boy
TTITLE10=Mercury Blues
EXTD=
EXTT0=
EXTT1=
EXTT2=
EXTT3=
EXTT4=
EXTT5=
EXTT6=
EXTT7=
EXTT8=
EXTT9=
EXTT10=
PLAYORDER=
